<?xml version="1.0" encoding="UTF-8"?><svg id="a" xmlns="http://www.w3.org/2000/svg" viewBox="0 0 138.46 193.41"><defs><style>.b{fill:#fff;}</style></defs><path class="b" d="M109.76,112.27c5.79,4.62,11.42,9.38,16.13,15.18-.3-1.28-.68-2.5-1.22-3.64-2.02-4.23-5.46-7.15-9.03-10.02-1.82-1.46-3.74-1.55-5.87-1.53M36.33,10.33c-2.31,1.12-4.22,2.66-5.63,4.77-2.23,3.34-3.04,7.09-3.21,11.04-.07,1.62-.08,1.61,1.49,1.62,.56,0,1.13,.06,1.7,.09-.39-6.63,2.52-12.1,5.65-17.52m-14.28,26.61c2.79,3.54,5.46,6.87,8.07,10.26,6.05,7.89,12.48,15.42,20.04,21.93,2.41,2.08,4.79,4.22,7.02,6.49,1.68,1.71,1.56,1.82,3.8,.94,.05-.02,.08-.12,.15-.23-.13-.13-.24-.27-.39-.39-6.73-5.32-12.4-11.67-17.65-18.41-4.19-5.37-8.44-10.69-13.59-15.2-2.27-1.99-4.57-3.96-7.45-5.4m43.51,122.05c-.11,.07-.03,.05,0,0,.17-.3,.35-.61,.5-.92,3.27-6.67,4.83-13.83,5.98-21.1,.28-1.79,.65-3.66,.43-5.42-.56-4.36-1.43-8.67-2.19-13.01-.06-.32-.18-.63-.3-1.07-1.83,.87-3.55,1.66-5.24,2.53-.26,.13-.5,.67-.45,.98,.31,2.04,.67,4.07,1.08,6.09,1.53,7.52,1.9,15.11,1.4,22.74-.21,3.11-.8,6.19-1.21,9.17m1.51-84.51c-.31-.39-.48-.65-.69-.86-2.03-2.04-4.08-4.06-6.09-6.11-7.54-7.69-15.05-15.42-22.63-23.07-3.04-3.07-6.29-5.95-10.21-7.88-1.25-.62-2.64-.95-3.6-1.29,1.32,1.07,2.84,2.34,4.4,3.56,5.58,4.33,10.2,9.58,14.45,15.16,5.76,7.57,12.14,14.57,18.99,21.15,.36,.35,1.03,.71,1.45,.62,1.27-.28,2.5-.79,3.93-1.27M24.81,33.6c.17,.1,.29,.2,.43,.24,4.68,1.31,8.51,4.07,11.83,7.44,8.06,8.16,15.97,16.47,23.95,24.71,2.19,2.26,4.45,4.45,6.59,6.76,1.22,1.31,1.38,1.44,3.1,.51-.23-.35-.43-.71-.67-1.05-7.43-10.58-16.09-20.08-25.62-28.79-3.3-3.01-6.74-5.88-10.22-8.67-1.7-1.36-3.72-2.29-5.96-2.48-1.31-.11-2.55,.06-3.43,1.33m47.81,39.1c-.08-.46-.11-.69-.16-.92-1.12-4.64-3.27-8.88-5.08-13.26-1.36-3.28-3.36-6.03-5.91-8.42-3.21-3.01-6.37-6.07-9.7-8.93-5.9-5.07-12.38-9.18-19.91-11.42-1.32-.39-2.68-.66-4.05-1-.08,1.46-.05,1.33,1.11,1.65,1.64,.44,3.36,.86,4.79,1.72,2.38,1.45,4.7,3.08,6.79,4.92,9.64,8.46,18.76,17.43,26.56,27.66,1.92,2.52,3.62,5.2,5.56,8m-28.93,63.54c-.11-.03-.21-.06-.32-.09-.98,2.31-2.09,4.58-2.93,6.95-1.61,4.55-1.48,9.1,.46,13.54,2.23,5.09,5.93,9.08,9.89,12.85,.29,.27,.87,.4,1.28,.35,4.21-.54,7.41-2.83,10.1-5.95,.17-.2,.27-.47,.36-.73,1.62-4.94,2.37-10.04,2.65-15.22,.04-.69-.29-.85-.92-1.03-1.48-.43-3.03-.83-4.32-1.63-4.05-2.5-6.69-6.22-8.41-10.59-.37-.95-.39-2.03-.57-3.05l.42-.23c3.12,6.14,6.73,11.81,13.73,14.26,.09-.47,.18-.73,.18-1,.01-3.19,.05-6.37,0-9.56-.03-1.94-.06-3.9-.33-5.81-.34-2.34-.94-4.64-1.42-6.96-.1-.47-.17-.95-.26-1.49-.32,.11-.53,.13-.68,.23-4.45,2.83-8.89,5.68-13.34,8.52-.19,.12-.44,.28-.49,.47-.26,.93-.97,.9-1.73,1.03-.58,.1-1.31,.46-1.58,.92-.61,1.06-1.08,2.22-.67,3.55,.27,.89,.35,1.83,.51,2.75,1.55,8.84,5.18,16.66,11.45,23.16,.66,.68,1.34,1.35,2.01,2.02-.12,.08-.24,.15-.37,.23-9.9-6.42-13.77-16.16-14.72-27.51M26.41,45.46c-3.06,4.57-5.44,9.32-6.75,14.54-1.8,7.21-2.39,14.45-.26,21.77-.67-.89-1.33-1.8-1.69-2.81-1.25-3.53-1.61-7.2-1.36-10.93,.6-8.81,3.45-16.72,9.36-23.54-1.55-2.16-3.23-4.49-4.94-6.86-3.52,4.42-9.27,18.88-8.74,21.95,1.59-5.47,3.96-10.42,8.13-14.34-.43,1.17-1.02,2.26-1.59,3.35-3.36,6.37-5.88,12.97-5.63,20.33,.07,2.04-.07,4.12,.94,6.05,2.26,4.31,5.15,8.14,8.73,11.43,.54,.5,1.12,.96,1.69,1.44-2.56-4.93-3.73-10.12-3.72-15.56,0-5.38,.86-10.61,3.49-15.42,.07,.59-.02,1.16-.13,1.71-1.08,5.99-1.91,12.02-.93,18.07,.56,3.47,1.6,6.89,2.69,10.24,1.24,3.81,4.16,4.75,7.49,2.67,.1-.06,.19-.14,.3-.19,5.78-2.85,11.54-5.73,17.34-8.54,2.08-1.01,4.23-1.87,6.72-2.96-3.83-3.25-7.44-6.31-11.24-9.52,.19,3.52,.63,6.78-.51,9.95-.39-3.36-.62-6.72-.94-10.08-.06-.65-.26-1.45-.69-1.86-6.31-6.06-11.72-12.88-16.94-19.87-.25-.33-.51-.64-.82-1.03m87.96,101.48c.09-.03,.19-.06,.28-.09,3.25,6.21,5.86,12.64,6.6,19.82,1.5-2.43,2.89-4.9,4.13-7.43,.27-.56,.24-1.43,.01-2.03-1.11-2.98-2.16-6-3.53-8.87-3.79-7.95-9.05-14.94-14.68-21.65-.27-.32-.53-.67-.79-1,.1-.07,.21-.14,.31-.21,8.97,8.6,15.83,18.58,19.73,30.64,.1-.22,.18-.34,.22-.47,1.58-5.69,1.13-11.32-.62-16.89-.08-.24-.43-.39-.59-.53,.33-1.94,.72-3.95,1-5.98,.29-2.18-.37-3.86-2.19-5.37-5.23-4.36-10.38-8.83-15.36-13.48-1.8-1.68-3.69-1.78-5.74-1.81,3.39,3.09,6.86,6.09,10.12,9.3,3.26,3.21,6.36,6.6,8.58,10.66-.38-.17-.66-.43-.94-.69-5.64-5.48-11.35-10.88-16.86-16.48-2.15-2.19-4.34-3.41-7.45-2.9-2.01,.33-4.06,.34-6.45,.52,11.62,8.99,20.77,19.58,27.29,32.35-1.24-1.48-2.39-3.04-3.53-4.61-7.22-9.87-15.33-18.91-24.76-26.73-.31-.26-.74-.62-1.07-.58-1.62,.21-3.22,.53-5.08,.86,20.58,13.55,27.29,30.76,29.18,40.43-.22-.35-.4-.71-.55-1.09-2.98-8-7.04-15.38-12.32-22.1-4.83-6.15-10.72-11.15-16.8-15.96-1.08-.85-1.95-.91-3.1-.22,.92,.86,1.85,1.67,2.72,2.54,9.72,9.79,17.31,21.07,22.92,33.63,2.13,4.77,3.78,9.77,5.46,14.73,1.04,3.07,1.71,6.26,2.54,9.33,1.72-1.38,3.38-2.71,5.04-4.04,1.14-.9,1.79-1.96,1.63-3.51-.51-5.15-2.02-10.06-3.58-14.95-.55-1.73-1.16-3.45-1.74-5.17m-33.92-4c.2-5.27-.2-10.51-.94-15.7-.54-3.81-1.4-7.57-2.13-11.36-.1-.53-.26-1.06-.97-.81-1.58,.55-3.15,1.12-4.7,1.74-.2,.08-.43,.59-.35,.8,1.36,3.7,1.79,7.58,1.93,11.47,.32,9.05-.74,17.93-3.88,26.47-1.8,4.9-4.51,9.24-8.69,12.49-2.23,1.74-4.66,3.12-7.64,3.07-.31,0-.62,.19-.96,.29,.87,1.55,2.08,2.39,3.68,2.52,2.74,.23,5.1-.86,7.04-2.59,2.1-1.88,4.1-3.94,5.81-6.18,4.4-5.76,7.48-12.29,10.32-18.92,.12-.27,.27-.53,.4-.8,.1,.45,.04,.82-.05,1.19-1.56,6.46-4.33,12.4-7.84,18.01-2.65,4.25-5.84,7.96-10.44,10.24-.06,.03-.09,.14-.26,.44,1.52-.44,2.85-.75,4.12-1.22,1.3-.49,2.57-1.09,3.81-1.74,1.15-.61,2.23-1.34,3.35-2.02-2.84,4.33-6.99,6.26-11.91,6.65-.01,.16-.03,.21-.02,.24,1.85,3.04,2.34,3.2,5.58,1.94,5.93-2.29,10.38-6.36,13.72-11.65,4.61-7.3,7.62-15.3,9.98-23.56,.1-.34,.2-.68,.3-1.02,.13,.5,.09,.96,.02,1.41-1.25,7.79-3.75,15.15-7.52,22.09-2.65,4.88-6.16,9.01-11,11.8-2.28,1.31-4.83,2.15-7.54,3.31,.76,.45,1.58,.95,2.42,1.42,5.64,3.12,11.72,4.68,18.12,5.22,1.55,.13,2.57-.43,3.54-1.51,4.47-4.98,7.89-10.61,10.26-16.87,.19-.51,.4-1.01,.6-1.52-.84,7.86-4.42,14.33-10.36,19.82,1.23-.14,2.08-.29,2.93-.32,2.04-.08,3.59-1.02,4.65-2.69,.79-1.24,1.6-2.53,2.06-3.92,1.14-3.46,2.12-6.98,3.1-10.5,.47-1.7,.78-3.44,1.16-5.17,.1,.02,.21,.05,.31,.07-.06,7.02-.97,13.85-4.74,20.22,5.26-2.15,9.76-5.08,13.72-8.82,.32-.3,.52-.94,.48-1.39-.45-4.5-1.89-8.72-3.63-12.86-.58-1.37-1.14-2.75-1.71-4.12,.05,7.4-.81,14.5-4.74,20.91-.12-.17-.11-.31-.07-.44,2.2-6.35,2.83-12.96,3.08-19.61,.08-2.05,.35-4.14-.59-6.18-6.23-13.57-14.46-25.81-24.57-36.78-.22-.24-.47-.47-.82-.81,2.59,9.1,3.44,18.12,1.59,27.27m8.51-70.87c.05,.13,.1,.25,.16,.38,.34-.14,.78-.2,.99-.45,2.23-2.62,3.68-5.65,4.62-8.95,1.23-4.36,2.39-8.83,1.93-13.31-.82-7.99-2.58-15.84-5.88-23.22-5.25-11.73-13.95-19.14-26.85-21.21-8.1-1.3-15.86,0-23.46,2.88-1.61,.61-2.59,1.56-3.29,3.13-2.27,5.09-4.57,10.14-5.42,15.71-.15,.99,.16,1.25,1.1,1.15,.26-5.13,2.16-9.54,5.52-13.35,3.42-3.89,10.06-7.55,12.46-6.76-9.02,4.06-15.13,10.53-17.27,20.42,4.79,1.31,9.17,3.65,13.38,6.45,.19-.33,.34-.55,.44-.79,1.53-3.55,3.92-6.42,6.93-8.81,4.72-3.74,10.63-3.94,15.59-.52,3.47,2.4,5.74,5.76,7.52,9.48,1.56,3.26,2.48,6.78,2.37,9.08-.51-1.3-.92-2.43-1.38-3.52-2.1-4.91-4.69-9.48-8.95-12.89-4.3-3.44-9.58-3.59-14.02-.32-2.98,2.19-5.29,5.03-7.46,7.99-.46,.62-.2,.93,.33,1.3,7.01,5,12.72,11.31,17.92,18.1,3,3.92,5.1,8.35,6.75,12.98,.62,1.73,.9,3.59,1.37,5.57,2.28-.4,4.6-.81,6.64-1.17-.21-6.02-.43-12.1-.64-18.17,.15,0,.29-.01,.44-.02,1.04,6.02,1.91,12.06,1.47,18.23q2.1,.31,2.45-1.8c.11-.69,.21-1.38,.29-2.08,.75-6.53,0-12.97-1.3-19.37-.78-3.89-1.66-7.77-2.49-11.65-.09-.45-.11-.91-.17-1.36,.13-.02,.26-.05,.4-.07,1.14,3.75,2.42,7.46,3.4,11.25,2.15,8.32,3.46,16.69,.59,25.2,.36,.06,.76,.06,1.12,.19,1.21,.43,1.68-.05,1.98-1.24,1.29-5.1,2.27-10.23,2.61-15.49,.08-1.22,.19-2.43,.28-3.64,1.83,5.34,.57,17.32-2.48,20.66m-.55,18.35c.07,.2,.13,.4,.2,.6-18.46,4.2-35.87,10.83-51.46,21.87,.97,1.59,2.04,3.36,3.11,5.11,13.34-10.47,29.05-15.23,45.1-19.19-.57,.38-1.18,.67-1.81,.91-7.28,2.71-14.6,5.32-21.83,8.16-6.95,2.73-13.6,6.09-19.75,10.38-.87,.61-1.1,1.14-.76,2.21,.37,1.15,.32,2.44,.48,3.66,.15,1.17,.17,2.41,.56,3.5,.64,1.77,2.01,2.4,3.87,2.14,.5-.07,1.02,0,1.51-.11,.45-.1,.94-.26,1.27-.56,1.67-1.51,3.17-3.22,4.95-4.59,7.35-5.64,15.47-9.77,24.42-12.27,8.59-2.4,17.31-3.44,26.21-2.7,2.61,.22,5.21,.63,7.76,.95-.15-.51-.25-1.07-.48-1.56-.14-.3-.47-.7-.75-.73-5.99-.58-11.99-1.11-18.03-.71-.77,.05-1.53,.05-2.3,.08,6.95-2.07,13.91-2.37,20.99-.23-.48-3.47-1.53-6.43-3.94-8.51-.59,.36-1.01,.76-1.5,.89-1.58,.42-3.19,.71-4.78,1.12-6.55,1.69-13.17,3.18-19.63,5.16-11.13,3.4-21.82,7.93-32.11,13.38-.66,.35-1.34,.65-2.01,.97l-.16-.39c18.07-11.87,38.12-18.42,59.23-21.95-.94-1.35-2.02-2.83-2.99-4.36-.44-.7-.75-1.5-.98-2.3-.44-1.52-.92-2.82-2.64-3.54-1.08-.45-2.14-1.51-2.7-2.56-1.11-2.06-2.44-3.88-4.22-5.37-.72-.61-1.05-1.21-.89-2.2,.28-1.8-1.81-4.48-3.49-4.45-2.49,.03-4.98,.11-7.45,.34-8.46,.8-16.43,3.49-24.18,6.77-7.26,3.06-14.38,6.46-21.57,9.68-1.62,.73-3.29,1.34-4.93,2,.16,1.6,1.4,2.2,2.38,2.8-.37,.58-.84,.99-.87,1.42-.05,.88-.03,1.84,.28,2.64,.66,1.73,1.52,3.39,2.3,5.07,.04,.09,.04,.21,.07,.39-.36-.01-.66-.02-.99-.03,.32,3.01,1.05,5.68,3.7,7.12,14.98-12.11,32.02-18.69,50.81-21.01m3.01-17.78c2.51,1.84,2.81,2.85,1.54,5.33,.07,.07,.13,.18,.22,.22,2.81,1.23,4.54,3.45,5.63,6.24,.63,1.61,1.86,2.52,3.43,3.05,.99,.33,1.75,1.6,1.86,2.85,.06,.63,.33,1.33,.73,1.81,.94,1.12,1.79,2.23,2.05,3.72,.06,.37,.44,.81,.8,.99,3.97,2.08,6.17,6.63,5.25,11.1-.14,.69-.2,1.15,.56,1.5,.29,.13,.65,.64,.6,.91-.2,1.09,.58,1.27,1.26,1.62,5.68,2.92,10.04,7.09,12.16,13.23,1.24,3.58,1.1,7.21-.43,10.7-.33,.76-.36,1.29,.08,2.02,2.32,3.82,2.65,8.08,2.45,12.4-.39,8.68-4.15,15.72-10.76,21.19-3.09,2.56-6.01,5.22-8.77,8.14-5.34,5.67-11.99,9.08-19.72,10.2-6.91,1-13.54-.4-19.99-2.8-3.42-1.27-6.66-2.88-9.07-5.75-1.03-1.22-2.07-2.46-1.93-4.08-1.78-.67-3.5-1.32-5.22-1.97-1.57-.59-2.5-1.69-2.99-3.33-.22-.73-.86-1.48-1.51-1.93-4.02-2.8-7.44-6.12-9.78-10.48-2.91-5.41-3.6-11-1.52-16.88,1.39-3.93,3.23-7.59,5.82-10.85,.17-.21,.35-.41,.52-.61-.15-.11-.21-.2-.27-.2-3.68-.12-4.53-3.53-4.18-6.86,.11-1.1-.51-2.28-.85-3.4-.04-.12-.47-.12-.55-.14-.12-.68-.11-1.33-.36-1.88-.6-1.36-1.06-2.79-2.09-3.97-.44-.5-.32-1.5-.48-2.41-3.11-1.99-4.54-6.27-2.77-8.73-.51-.72-1.06-1.42-1.52-2.17-.95-1.53-1.15-3.21-.82-4.94,.13-.67,0-1.09-.46-1.65-.53-.66-.72-1.6-1.13-2.57-5.93-.88-9.57-5.42-13.21-9.8-3.58-4.31-5.98-9.28-6.71-14.91-.58-4.47,.19-8.84,1.36-13.13,1.75-6.39,4.6-12.22,9.08-17.18,.17-.19,.37-.44,.39-.68,.17-1.61,1.26-2.29,2.62-2.78,.3-.11,.67-.42,.73-.7,.25-1.1,.92-1.79,1.91-2.19,.77-.3,1.06-.77,.93-1.61-.16-1.04-.2-2.09-.28-3.14-.59-7.3,2.91-15.12,11.48-18.88,9.9-4.35,20.01-5.92,30.59-3.26,11.59,2.91,19.33,10.34,24.3,20.95,1.72,3.68,2.87,7.56,3.69,11.53,.75,3.66,1.68,7.3,2.16,11,.93,7.23-.22,14.2-3.59,20.7-.83,1.59-2.12,2.93-3.24,4.45"/><path class="b" d="M35.23,101.02c.45-.43,.86-.92,1.35-1.3,3.7-2.83,7.82-4.91,12.02-6.85,10.48-4.85,21.45-8.1,32.81-10.06,2.17-.37,4.38-.56,6.62-.61-18.19,4.55-36.12,9.76-52.46,19.32-.11-.17-.23-.33-.34-.5"/><path class="b" d="M95.39,91.91c-.35,.15-.69,.35-1.06,.43-12.88,3.02-25.46,6.96-37.59,12.33l-.23-.4c.37-.31,.69-.71,1.1-.93,2.76-1.41,5.49-2.9,8.32-4.15,7.4-3.27,15.12-5.51,23.11-6.78,2.07-.33,4.16-.51,6.24-.76,.04,.09,.07,.17,.11,.26"/><path class="b" d="M42.14,90.57c4.08-4.01,31.12-12.32,39.01-11.05-13.23,2.86-26.17,6.76-39.01,11.05"/><path class="b" d="M88.34,42.78c-.76-1.84-1.49-3.69-2.3-5.5-2.38-5.4-5.12-10.6-9.54-14.65-4.39-4.02-9.5-6.98-15.11-8.86-6.8-2.28-12.59,.09-17.65,4.69-2.51,2.28-4.25,5.15-5.81,8.13-.27,.52-.6,1.01-.9,1.51-.15-.05-.31-.09-.46-.14,.13-.75,.15-1.54,.41-2.24,1.89-5.12,4.9-9.37,9.75-12.08,5.61-3.13,11.36-3.87,17.43-1.14,5.51,2.49,10.73,5.39,14.98,9.75,4.31,4.43,6.75,9.92,8.46,15.76,.45,1.53,.74,3.11,1.1,4.67-.12,.03-.23,.07-.35,.1"/><path class="b" d="M67.26,9.41c.76,.05,1.56-.03,2.27,.18,3.02,.87,5.58,2.57,7.85,4.69,6.08,5.65,10.26,12.52,12.91,20.36,.15,.44,.2,.91,.29,1.37,.03,.17,.04,.36-.11,.6-.87-1.67-1.69-3.36-2.61-5-3.3-5.93-7.01-11.56-11.99-16.25-2.26-2.13-4.81-3.81-7.68-5.01-.34-.14-.66-.34-.99-.52,.02-.14,.04-.27,.06-.41"/><path class="b" d="M78.22,70.93c-1.62-10.8-5.08-20.87-11.09-30.04l.38-.26c.77,.83,1.62,1.59,2.31,2.49,2.78,3.64,4.83,7.69,6.21,12.04,1.56,4.91,2.6,9.92,2.31,15.12-.01,.21-.08,.43-.12,.64"/><path class="b" d="M53.49,32.13c.22-.33,.39-.64,.62-.9,2.19-2.55,6.51-3.58,9.85-2.17,4.12,1.73,7.06,4.73,8.89,8.8,.06,.14,.1,.3,.14,.45,.02,.07,0,.15,.01,.43-.63-.74-1.11-1.42-1.71-1.96-1.9-1.71-3.7-3.57-5.79-5.01-3.61-2.47-7.38-2.23-11.03,.12-.19,.12-.38,.26-.58,.37-.04,.02-.14-.04-.4-.13"/><path class="b" d="M45.66,28.53c.41-3.01,7.55-9.68,11.1-10.4-3.65,3.42-7.41,6.95-11.1,10.4"/><path class="b" d="M85.19,181.05c7.52-13.9,10.12-28.81,9.25-44.46,.1-.03,.19-.06,.29-.09,.17,.41,.38,.8,.49,1.22,1.24,4.95,.95,9.97,.48,14.96-.83,8.87-3.36,17.22-7.97,24.89-.4,.67-.85,1.31-1.31,1.94-.39,.53-.82,1.03-1.23,1.54"/><path class="b" d="M82.35,121.85c2.08,5.84,2.68,11.9,2.65,18.05l-.35,.05c-.94-6-1.87-11.99-2.8-17.99,.17-.04,.33-.08,.5-.11"/><path class="b" d="M82.34,176.16c-1.13,3.96-6.86,9.27-10.09,9.22,3.4-3.1,6.77-6.18,10.09-9.22"/><path class="b" d="M120.08,153.73c-5.9-9.87-12.84-19.01-20.39-27.7,.16-.12,.33-.24,.49-.35,8.84,7.75,15.5,17.08,19.9,28.06"/><path class="b" d="M109.58,123.36c5.72,5.92,10.34,12.64,14.45,19.74-.09,.07-.19,.14-.28,.21-4.86-6.52-9.72-13.05-14.58-19.57,.14-.12,.27-.25,.41-.37"/><path class="b" d="M35.75,57.49c-.16,.78-.21,1.3-.37,1.77-1.26,3.72-2.51,7.44-2.95,11.37-.68,5.97-.16,10.21,1.94,16.97-.51-.66-1.11-1.27-1.52-1.99-2.03-3.55-2.57-7.48-2.62-11.48-.07-5.03,1.16-9.78,3.36-14.28,.42-.86,.79-1.83,2.16-2.36"/><path class="b" d="M29.98,60.69c-2.42,9.13-2.72,18.24,.33,27.32-.15,.05-.29,.1-.44,.15-.25-.27-.55-.51-.73-.82-1.67-2.84-2.39-5.99-2.75-9.21-.55-4.99,.11-9.85,1.84-14.55,.37-1.01,.9-1.97,1.35-2.95,.13,.02,.26,.04,.39,.05"/><path class="b" d="M39.28,62.97c2.6,1.43,4.41,12.69,2.8,15.89-.92-5.24-1.84-10.44-2.8-15.89"/><path class="b" d="M42.5,140.75c1.29,9.12,3.95,17.72,9.39,25.28-.09,.07-.18,.15-.26,.22-.66-.59-1.38-1.13-1.97-1.78-3.26-3.59-5.19-7.88-6.51-12.48-.92-3.23-1.55-6.5-1.29-9.89,.03-.44,.15-.88,.23-1.32,.14-.01,.28-.02,.43-.03"/><path class="b" d="M59.04,152.77c-5.25-5.04-9.64-10.73-12.9-17.25,.14-.1,.28-.21,.41-.31,4.23,5.78,8.47,11.57,12.7,17.35-.07,.07-.14,.14-.22,.21"/><path class="b" d="M64.61,140.04c-3.35-.73-11.35-9.8-11.24-13,3.83,4.43,7.48,8.65,11.24,13"/><path class="b" d="M56.77,127.68c1.74,1.75,3.48,3.5,5.22,5.25-.12,.12-.24,.24-.36,.37l-5.35-5.06c.16-.19,.32-.37,.48-.56"/></svg>