<?xml version="1.0" encoding="UTF-8"?><svg id="a" xmlns="http://www.w3.org/2000/svg" viewBox="0 0 224.18 172.53"><defs><style>.b{fill:#fff;}</style></defs><path class="b" d="M104.74,151.79c-.01,.17-.02,.35-.04,.52-1.17,.09-2.33,.17-3.5,.25,.87,.95,1.91,1.9,2.88,1.83,5.97-.4,12.22,1.7,17.85-1.96-.8-.06-1.6-.12-2.4-.19,0-.06,0-.11,.01-.16,1.22-.18,2.44-.36,3.65-.54l-.06-.27h-23.45c-.01,.17-.02,.34-.03,.51h5.08Zm-81.67-4.55c-.38-2.17-1.01-4.22-1.04-6.28-.15-9.16-.15-18.33-.17-27.5-.07-26.79-.14-53.59-.18-80.38,0-1.84,.12-3.7,.38-5.52,.35-2.47,1.77-3.75,4.28-3.97,2.13-.19,4.27-.34,6.4-.34,47.85,.02,95.69,.06,143.54,.12,6.99,0,13.97,.15,20.96,.24,3.46,.04,4.33,.79,4.63,4.12,.16,1.77,.27,3.55,.27,5.32,.03,35.4,.04,70.79,.09,106.19,0,2.84-.12,5.58-2.3,8.05,.57-.07,.79-.05,.97-.13,2.23-1.05,2.58-3.04,2.58-5.18,0-17.2,0-34.4,0-51.6,0-20.89,0-41.79-.02-62.68,0-3.88-.64-4.7-4.41-5.06-3.83-.37-7.68-.68-11.52-.67-15.33,.03-30.66,.34-45.99,.29-34.51-.11-69.02-.38-103.53-.52-4.19-.02-8.4,.33-12.59,.66-2.81,.22-4.2,1.57-4.72,4.37-.23,1.25-.33,2.54-.33,3.81,.04,10.02,.17,20.04,.18,30.06,0,19.9-.09,39.8-.07,59.7,0,7.46,.15,14.92,.31,22.38,.04,1.83,.28,3.72,2.29,4.54m-18.99,3.89c-.18,5.1,1.85,7.38,6.66,7.67,1.35,.08,2.71,.05,4.06,.04,15.4-.14,30.79-.42,46.19-.4,49.76,.07,99.52,.24,149.28,.38,1.98,0,4.12,.38,4.73-2.36-.07,.61-.14,1.21-.21,1.82,.18,.04,.36,.09,.54,.13,.42-1.09,.84-2.18,1.42-3.71v2.31c.16,.05,.31,.09,.47,.14,.36-.96,.73-1.92,1.09-2.86,.91,.43,1.6-.98,1.58-3.47-2.84,0-5.68,0-8.53,0-27.73,.09-55.46,.21-83.19,.24-2.1,0-3.56,.64-5.08,2.05-1.16,1.08-2.85,2.1-4.36,2.2-4.33,.28-8.69,.09-13.04,.04-2.36-.03-4.51-.56-6-2.63-.96-1.33-2.29-1.63-3.92-1.62-29.8,.04-59.6,.03-89.4,.03h-2.28Zm22.29-3.86c1.62,.17,2.61,.37,3.59,.37,7.56,.01,15.12-.03,22.67-.03,43.35,0,86.7-.01,130.05-.02,4.14,0,8.27,.03,12.4-.05,1.42-.03,2.47-.38,2.47-2.35,0-6.11,.27-12.21,.43-18.32,.02-.79,0-1.57,0-2.36,.17,0,.33,.02,.5,.03v21.71c1.82-1.84,1.96-3.93,1.96-6.07,.02-28.43,.04-56.86,.05-85.29,0-8.95-.02-17.91-.02-26.86,0-1.55-.31-2.82-2.28-3.01,.24,6.69,.48,13.32,.72,19.95-.14,0-.28,.01-.42,.02-.35-6.63-.69-13.26-1.06-20.16-4.58-.13-8.98-.36-13.38-.36-35.72-.05-71.45-.07-107.17-.08-16.25,0-32.5,.06-48.76,.02-2.04,0-2.4,.76-2.38,2.65,.05,6.98-.11,13.97-.2,20.95-.19,0-.37,0-.56,0V25.15c-1.87,1.45-2.13,3.15-2.1,4.92,.1,5.4,.35,10.8,.37,16.19,.14,30.35,.22,60.69,.33,91.04,0,1.63-.01,3.28,.2,4.9,.2,1.51,.25,3.21,1.86,4.1v-20.75c.23,0,.47,0,.7-.01v21.74Zm-8.66,.32c-.26-3.41-.72-6.58-.7-9.75,.22-34.25,.51-68.5,.81-102.74,.02-2.56,.19-5.11,.4-7.66,.38-4.64,3.23-7.14,8.37-7.21,11.12-.16,22.24-.29,33.36-.35,27.37-.16,54.75-.35,82.12-.38,17.18-.02,34.36,.2,51.54,.39,2.76,.03,5.54,.32,8.27,.77,2.42,.4,3.92,2.07,4.14,4.53,.37,4.03,.79,8.07,.8,12.1,.1,34.39,.14,68.78,.12,103.17,0,2.36-.55,4.71-.86,7.23,4.17,0,8.58,.09,12.98-.04,2.07-.06,2.76,.74,2.84,2.7,.29,6.98-3.25,11.32-10.16,11.44-13.82,.24-27.65,.23-41.47,.21-40.85-.06-81.69-.12-122.54-.3-12.04-.05-24.09-.45-36.12-.77-1.47-.04-2.97-.38-4.37-.82-2.92-.92-4.43-3.04-4.44-6.07-.03-7.41-.34-6.35,6.19-6.46,2.99-.05,5.97,0,8.75,0"/><path class="b" d="M56.08,141.71c4.46,0,8.23,.07,12.01-.05,.94-.03,2.07-.49,2.77-1.13,6.86-6.32,13.65-12.71,20.45-19.09,.86-.81,1.66-1.67,2.72-2.74-3.79-.24-7.25-.57-10.72-.63-1.06-.02-2.38,.41-3.15,1.11-4.81,4.34-9.5,8.81-14.22,13.24-3.14,2.95-6.28,5.91-9.85,9.28m-14.03-.51l.13,.5c3.75,0,7.5,.08,11.25-.05,1.01-.04,2.2-.51,2.95-1.19,4.23-3.81,8.36-7.73,12.51-11.63,3.77-3.54,7.53-7.09,11.15-10.51-3.26-1.13-6.43-2.22-9.91-3.42-9.1,8.52-18.6,17.41-28.09,26.31m73.9-24.87c0-.21,.01-.42,.02-.62,4.42,0,8.85,.15,13.26-.03,6.62-.28,13.25-.57,19.83-1.26,5.96-.62,8.17-2.87,9.32-8.46,.29-1.39,.51-2.81,.54-4.22,.19-9.38,.42-18.76,.43-28.13,0-3.68-.4-7.37-.87-11.03-.63-4.93-2.14-6.61-7.07-7.42-4.28-.7-8.62-1.24-12.95-1.32-16.03-.32-32.07-.46-48.11-.57-3.41-.02-6.86,.15-10.23,.68-7.58,1.19-10.09,3.27-10.69,10.1-.43,5.01-.56,10.08-.46,15.11,.17,8.8,.51,17.6,1.01,26.39,.29,5.19,2.45,7.66,6.93,8.76,1.17,.29,2.38,.51,3.58,.57,11.82,.51,23.63,.99,35.45,1.47M174.08,30.81c-2.93,2.89-5.83,5.83-8.81,8.67-4.38,4.15-8.82,8.23-13.07,12.19,2.77,1.61,5.45,3.17,8.32,4.84,.27-.24,.91-.8,1.53-1.38,8.21-7.68,16.42-15.38,24.65-23.04,.59-.55,1.39-.89,2.09-1.33-8.89,8.41-17.74,16.87-26.72,25.19-1.52,1.41-2.08,2.6-1.25,4.53,.41,.95,.52,2.06,.63,3.12,1.4,13.64,.84,27.25-.87,40.81-1,7.99-4.18,11.17-12.13,12.21-6.42,.84-12.9,1.38-19.37,1.59-10.76,.35-21.53,.32-32.29,.53-.89,.02-2,.36-2.64,.95-7.48,6.91-14.89,13.89-22.31,20.85-.28,.26-.5,.59-.99,1.18,1.01,0,1.62,0,2.24,0,29.09,.03,58.18,.06,87.27,.08,9.06,0,18.11-.01,27.17-.05,4.84-.02,6.6-1.66,6.8-6.47,.12-2.84-.09-5.68-.08-8.52,.06-29.85,.14-59.7,.19-89.55,0-1.33-.07-2.73-.47-3.98-.71-2.25-3.18-3.31-5.2-2.45-.51-.26-1.01-.72-1.54-.75-3.34-.18-6.69-.33-10.03-.32-.97,0-1.94,.58-2.91,.89-.11-.29-.21-.83-.32-.84-4.31-.04-8.62-.05-12.93,0-.42,0-.83,.47-1.25,.72-.59-.27-1.17-.79-1.76-.79-8.41,.03-16.83,.24-25.24,.2-29.3-.16-58.61-.43-87.91-.57-4.12-.02-8.25,.32-12.35,.75-2.16,.23-3.67,1.66-3.74,3.99-.08,2.69,.03,5.38,.04,8.07,.15,29.64,.29,59.27,.46,88.91,.01,2.34,.06,4.69,.4,7,.39,2.72,1.57,3.59,4.35,3.67,1.57,.04,3.16,.16,4.7-.06,1.1-.15,2.36-.54,3.15-1.26,8.79-8.11,17.5-16.31,26.24-24.47,.67-.62,1.45-1.12,2.17-1.67l-.79-.24c-.72-2.41-1.75-4.78-2.1-7.25-1.98-14.23-1.48-28.5,.02-42.73,.77-7.31,5.26-11.51,12.57-12.24,4.39-.44,8.8-.92,13.21-.97,14.11-.16,28.22-.17,42.34-.13,1.4,0,2.39-.22,3.41-1.19,6.2-5.87,12.45-11.7,18.71-17.51,.66-.61,1.46-1.07,2.2-1.61-.5,.59-.95,1.23-1.5,1.75-5.27,4.99-10.55,9.96-15.83,14.94-1.21,1.14-2.43,2.29-3.88,3.65,3.79,.36,7.16,.79,10.54,.95,.98,.05,2.23-.39,2.95-1.05,6.51-5.96,12.91-12.02,19.38-18.02,.75-.7,1.68-1.2,2.53-1.8m-63.9,112.66c-24.6,0-49.2-.02-73.8,.02-5.64,0-8.67,.17-8.72-8.62-.14-25.59-.02-51.17-.05-76.76,0-6.82-.12-13.64-.33-20.46-.2-6.62,2.09-9.02,9.06-9.02,40.64,0,81.28,.01,121.92,.04,8.99,0,17.97,.06,26.95,.13,1.78,.01,3.56,.16,5.32,.39,3.29,.42,5.16,2.28,5.25,5.66,.21,7.88,.32,15.77,.33,23.66,.03,25.09,0,50.18-.02,75.27,0,1.41-.11,2.85-.37,4.23-.5,2.72-2.2,4.44-4.93,4.92-1.82,.32-3.68,.51-5.52,.51-25.03,.03-50.06,.02-75.08,.02h0Z"/><path class="b" d="M208.4,157.04c-1.28,.14-2.55,.41-3.82,.41-61.66-.03-123.33-.07-184.99-.13-2.71,0-5.42-.07-8.12-.23-1.16-.07-2.3-.46-3.1-.63,19.63,.53,39.55-.37,59.47-.23,19.96,.15,39.92,0,59.89-.01,20.03-.02,40.07-.04,60.1-.05,6.2,0,12.4,.03,18.61,.06,.65,0,1.31,.1,1.96,.15,0,.22,.01,.44,.02,.66"/><path class="b" d="M99.38,100.75c12.47-4.01,23.58-10.06,35.26-15.48-.59-.5-.87-.83-1.23-1.01-10.37-5.28-20.76-10.5-31.1-15.84-4.12-2.13-4.49-1.97-4.43,2.95,.09,7.59,.51,15.17,.85,22.75,.09,2.09,.4,4.17,.65,6.63m-3.72-15.59c.25-5.6,.43-11.2,.78-16.79,.15-2.35,1.22-3.14,3.59-2.64,2.28,.47,4.62,1.03,6.7,2.02,9.23,4.39,18.37,8.94,27.54,13.45,.63,.31,1.24,.71,1.75,1.19,2.36,2.18,2.05,4.42-.87,5.76-9.93,4.56-19.88,9.08-29.85,13.56-1.74,.78-3.59,1.34-5.42,1.89-1.84,.55-3.22-.16-3.43-2.08-.37-3.23-.54-6.49-.69-9.75-.1-2.19-.02-4.4-.02-6.6-.03,0-.06,0-.09,0"/><path class="b" d="M91.32,55.38c-.74,.05-1.47,.11-2.21,.14-2.84,.14-5.7,.12-8.51,.44-6.74,.77-8.61,2.9-8.94,9.72-.16,3.23-.39,6.46-.59,9.68l-.56-.04c.41-4.71,.67-9.43,1.3-14.11,.37-2.72,2.14-4.76,4.97-5.18,4.81-.71,9.67-1.13,14.5-1.67l.04,1.01"/><path class="b" d="M157.43,93.22c.09,5.3,.52,10.61-1.29,15.68-.78,2.18-2.54,3.52-4.77,3.79-4.57,.55-9.17,.86-13.75,1.27-.02-.18-.03-.37-.05-.55,3.11-.2,6.23-.38,9.34-.62,7.44-.56,9.57-2.78,9.89-10.22,.12-2.77,.22-5.53,.35-8.3,.02-.36,.18-.71,.27-1.06"/><path class="b" d="M154.72,65.36c-1.46,2.02-2.92,4.04-4.38,6.07-.14-.1-.27-.19-.41-.29,1.47-2.02,2.93-4.03,4.4-6.05,.13,.09,.26,.18,.39,.27"/><path class="b" d="M126.31,85.48c-8.26,3.69-16.51,7.39-24.77,11.08-.1-.23-.2-.46-.31-.69,8.27-3.65,16.54-7.29,24.81-10.94,.09,.18,.17,.36,.26,.54"/><path class="b" d="M119.89,90.94c-5.55,2.49-11.1,4.98-16.65,7.48-.1-.24-.21-.47-.31-.71l16.75-7.25c.07,.16,.14,.32,.21,.48"/></svg>