<?xml version="1.0" encoding="UTF-8"?><svg id="a" xmlns="http://www.w3.org/2000/svg" viewBox="0 0 181.32 182.42"><defs><style>.b{fill:#fff;}</style></defs><path class="b" d="M106.45,32.66c.58,.37,1.38,.46,2.05,.4,1.08-.09,2.08-.55,3.07-1.01,.74-.34,1.52-.71,2.02-1.38,.75-1,.67-2.4,.43-3.64-.21-1.13-.57-2.3-1.43-3.03-.67-.57-1.46-.71-2.27-.77-.48-.04-.97-.05-1.45-.12-1.51-.2-2.13-.41-3.26,.89-.39,.37-.8,.72-1.24,1.04l-.1,.06c-1.82,2.48,.16,4.19,1.18,6.08,.49,.54,.25,1,1.01,1.48"/><path class="b" d="M56.22,71.46c-.67-.57-1.46-.7-2.27-.77-.48-.04-.97-.05-1.45-.12-1.51-.2-2.13-.41-3.26,.89-.39,.37-.8,.72-1.24,1.04l-.1,.06c-1.82,2.48,.16,4.19,1.18,6.08,.49,.54,.25,1,1.01,1.48,.58,.37,1.38,.46,2.05,.4,1.08-.09,2.08-.55,3.07-1.01,.74-.34,1.52-.71,2.02-1.38,.75-1,.67-2.4,.43-3.64-.21-1.13-.57-2.3-1.43-3.03"/><path class="b" d="M82.33,62.98c-.28-.23-.38-.53-.3-.9-.2-.64-.59-1.13-1.16-1.46-.28-.56-.67-1-1.27-1.21l.15,.16c-1.43-1.42-2.97-1.15-4.54-.3-1.02,.91-1.81,.66-2.6,1.96-.65,1.08-1.57,2-1.57,3.36,0,1.12,.47,2.18,1.08,3.1,.49,.75,1.09,1.44,1.86,1.88,1.28,.74,2.85,.7,4.32,.63,.51-.02,1.03-.05,1.51-.23,.49-.18,.9-.52,1.31-.85,1.32-1.07,2.26-2.75,2.01-4.57-.09-.62-.53-1.05-.79-1.58"/><path class="b" d="M92.29,19.92c.97,.3,2.02,.53,2.99,.24,1.29-.39,3.72-1.45,4.31-2.74,.31-.68,.4-1.45,.42-2.21,.03-1.1-.1-2.24-.61-3.21-1.25-2.36-2.45-2.42-4.82-2.19h-.05c-1.3,.13-2.41,.15-3.55,.95-1.09,.76-1.89,1.92-2.31,3.2-.41,1.26-.44,2.72,.26,3.84,.73,1.16,2.08,1.73,3.37,2.12"/><path class="b" d="M22.76,51.89c1.01-.74,2.12-1.64,2.25-2.91,.06-.53-.07-1.07-.2-1.58-.06-.22-.11-.43-.17-.63-.63-2.29-1.47-3.9-3.86-4.97-.53-.24-1.09-.41-1.66-.47-2.41-.24-4.65,1.74-5.36,4.11-.15,.48-.21,1.02-.16,1.53-.13,.32-.19,.72-.17,1.23,.06,1.2-.1,2.55,1.2,3.12,2.12,.93,6.09,2.07,8.13,.58"/><path class="b" d="M66.93,15.3l-.23,.17c1.19-.39,.91-1.7,1.47-2.48,.16-1.75,.38-3.46-.26-5.21-.68-1.86-1.56-3.19-2.6-4-2.59,.78-5.13,1.67-7.61,2.67-.15,7.43,3.06,10.53,9.24,8.85"/><path class="b" d="M43,20.66c1.21-.51,1.18-1.51,1.21-2.82,.03-1.42-.25-2.79-.72-4.11-2.7,1.71-5.29,3.56-7.78,5.54,1.13,.87,2.65,1.28,4.09,1.47,.98,.13,2.26,.3,3.2-.09"/><path class="b" d="M73.6,27.31c.7,1.07,1.81,1.8,3.06,2.27,1.6,.6,2.94,1.81,4.36,.35,1.56-2.18,3.38-6.6,1.52-9.11-1.64-2.22-6.08-.89-8.19-.42-.22,.05-.46,.11-.62,.27-.13,.13-.2,.32-.26,.5-.47,1.4-.84,2.9-.58,4.36,.12,.68,.37,1.28,.7,1.79"/><path class="b" d="M79.3,35l.16-.18s-.08,.08-.12,.12c-.01,.02-.03,.04-.04,.06"/><path class="b" d="M64.28,50.04c-1.52-.62-2.65,1.17-4.06,1.28-3.22,.26-3.46,4.97-1.38,6.63,.32,.26,.67,.46,1.05,.61,.78,.32,1.64,.43,2.48,.36,1.22-.1,2.44-.59,3.31-1.47,.87-.89,1.35-2.2,1.12-3.44-.23-1.23-1.29-3.47-2.52-3.97"/><path class="b" d="M51.07,35.66c.06-1.07-.06-2.13-.31-2.86-.29-.83-1.31-1.68-2-2.21-2.31-1.02-4.63-1.29-6.94,.01l.14-.1c-.6,.22-1.01,.66-1.33,1.21l.09-.11c-1.69,3.73-1.11,6.77,2.56,8.88,1.96,1.13,5.22,.16,6.71-1.44,.68-.74,1.02-2.06,1.09-3.37"/><path class="b" d="M48.72,30.56l.03,.03h0l-.04-.03Z"/><path class="b" d="M124.06,26.03c.29,1,1.46,2.57,2.14,3.33,1.02,1.14,2.56,1.67,4.06,1.81,1.42,.13,2.9-.05,4.17-.72,1.5-.78,2.23-2.1,2.36-3.55,.13-1.32-.24-2.75-.97-3.99-2.72-3.2-6-2.14-9.26-1.27-.5,.28-.9,.66-1.17,1.18l.1-.1c-.68,1.01-1.82,1.98-1.44,3.3"/><path class="b" d="M126.57,21.65h0s.07-.06,.11-.08l-.12,.08Z"/><path class="b" d="M135.81,22.89s.01,.02,.02,.03h0l-.02-.03Z"/><path class="b" d="M62.12,37.05c-.21,1.36,.49,2.74,1.51,3.63,1.02,.89,2.32,1.36,3.62,1.7,.93,.24,1.9,.42,2.85,.24,.94-.18,1.86-.79,2.19-1.71,.15-.41,.11-.84,.32-1.21,.2-.35,.72-.46,.91-.9,.27-.62,.06-1.96-.36-2.48-.24-.29-.29-.62-.17-.97-2.57-3.65-10.1-3.4-10.87,1.71"/><path class="b" d="M101.25,45.97c-1.92-1.08-3.84-1.26-5.78-.04l.12-.09c-.55,.26-.97,.66-1.24,1.21-.56,.27-.99,.67-1.19,1.3l.12-.12c-1.36,1.36-2.27,3.7-.99,5.3,.2,.24,.44,.47,.74,.67,.98,.66,2.19,.83,3.36,.96,2.02,.23,4.75-.19,5.8-2.17,1.04-.94,.79-2.3,.3-3.47-.29-.21-.36-.49-.24-.83-.39-.88-.28-1.97-1.01-2.71Z"/><path class="b" d="M101.25,45.97h0s-.05-.06-.08-.08l.08,.08Z"/><path class="b" d="M38.46,54.51l.05-.05c-.53,.1-.83,.55-1.21,.86l-.08,.03c-.79,.57-1.48,1.23-2,2.07-.46,1.7-.86,3.49-.09,5.17,.45,.99,1.37,1.7,2.37,2.07,1,.38,2.09,.45,3.15,.43,2-.04,3.47-2.09,3.66-4.07,.24-2.47-1.43-4.77-3-6.45-.93-1.08-1.88-1.03-2.85-.07"/><path class="b" d="M41.47,82.73c-.48-.23-1.02-.29-1.55-.32-1.98-.1-4.03,.32-5.66,1.47-.69,.49-1.61,.88-1.92,1.73-.22,.62-.2,1.3-.16,1.95,.05,.99,.11,2.02,.62,2.87,.52,.87,1.46,1.41,2.43,1.66s1.98,.23,2.97,.22c.87-.01,1.76-.03,2.6-.29,1.67-.52,2.93-2.87,3.03-4.58,.07-1.26-.32-2.52-1.05-3.54-.34-.48-.77-.92-1.3-1.17"/><path class="b" d="M27.82,74.86c0-.18-.02-.35-.03-.52-.17-2.17-.77-4.41-2.28-5.97-.83-.85-2.08-1.47-3.19-1.05-1.93,.74-2.55,5.12-2.71,8.99l-.07,.06c.02,.06,.04,.12,.06,.18-.08,2.03-.03,3.89,.01,5-.64,3.27,.11,6.43,.54,9.62-.01,.96-.07,1.93-.19,2.91-.04,.28-.07,.56-.1,.84-.15,.51-.16,1.01-.1,1.51-.06,1.78,.15,3.56,.94,5.2,.81,1.69,2.48,3.21,4.88,3.74,1.64-.52,1.9-2.08,1.87-3.32,0-.08,0-.17,0-.25,.03-.04,.05-.08,.08-.12,.17-1.13,.07-2.24-.11-3.33,0-1.4-.03-2.8-.1-4.19,0-.06,0-.12,0-.18,.51-3.04,.12-6.01-.32-8.98,.19-1.95,.51-3.93,.7-5.91,.2-.71,.22-1.41,.15-2.1,.03-.71,.03-1.42,0-2.12"/><path class="b" d="M8.13,114.95c.7,.2,1.49,.14,2.22-.09,.12-.01,.24-.02,.37-.03-.02-.03-.03-.05-.05-.08,.56-.22,1.08-.53,1.48-.91,.97-.92,1.35-2.11,1.5-3.25,.27-1.96-.03-3.89-.4-5.82,.44-1.26,.12-2.37-.61-3.41-1.31-1.88-.4-6.18-.33-8.34-.06-4.92,.27-9.9,.3-14.83,.02-3.07,0-6.31-1.35-9.04,.28-.64,.56-1.28,.84-1.92-.16-.25-.25-.55-.48-.75-.85-.76,0-2.59-2.17-2.45,.03-.88,.11-1.77-.06-2.62-.19-.97-.68-1.84-1.17-2.7-.14-.24-.29-.49-.46-.73-1.98,5.41-3.45,11.06-4.35,16.9,.32,3.86,.63,7.73,.95,11.59-.02,.01-.03,.03-.05,.04h.04s.01,.02,.02,.03h0c.31,3.86-.05,7.81,.75,11.54-.01,1.36-.02,2.72-.03,4.08-.2,1.22-.45,2.44-.48,3.65-.04,1.35,.2,2.68,.52,4,0,.17,0,.34,0,.51,.31,1.23,.66,2.45,1.02,3.66,.35,.27,.78,.49,1.27,.65,.21,.12,.43,.23,.7,.31"/><path class="b" d="M155.81,147.3c-1.11,1.36-2.23,2.79-3.31,4.26,3.02-2.95,5.83-6.12,8.4-9.48-.04,.03-.07,.05-.11,.08-1.91,1.42-3.5,3.31-4.98,5.13"/><path class="b" d="M174.16,115.9c0,.53,.05,1.07-.13,1.59-.13,.38-.38,.73-.58,1.09-.14,.25-.24,.47-.32,.67-.19,.21-.36,.44-.5,.68-.27,.31-.5,.68-.71,1.08,.04,.17,.07,.33,.11,.5-.14,.59-.22,1.2-.33,1.79-.06,.34-.14,.67-.22,1.01,1.96-4.4,3.57-8.98,4.8-13.72-.38,.46-.77,.91-1.04,1.4-.69,1.22-1.07,2.58-1.07,3.92"/><path class="b" d="M160.42,140.09c-.67,.37-1.29,.81-1.91,1.26-.81,.58-1.62,1.17-2.44,1.75-1.28,.92-2.57,1.84-3.76,2.86-2.44,2.09-4.5,4.58-6.03,7.3-.69,1.23-1.29,2.53-2.21,3.63-.36,.43-.77,.84-1.03,1.33-.24,.47-.32,.98-.4,1.48,0,.07-.02,.13-.03,.2,1.42-1.03,2.82-2.11,4.18-3.22,1.09-1.72,1.11-3.97,2.56-5.47,.84-.87,2.03-1.34,3.01-2.07,1.35-.99,2.25-2.42,3.4-3.62,1.47-1.55,3.31-2.68,5.27-3.61,.83-1.08,1.63-2.19,2.4-3.31-.11,.07-.22,.14-.33,.2-.87,.48-1.81,.81-2.68,1.28"/><path class="b" d="M78.57,170.19c2.55-3.61,3.65-6.81,6.82-10.12,2.51-2.61,3.39-6.17,5.2-9.19,2.13-3.56,4.17-8.62,4.79-12.47,.12-.77,.25-1.54,.37-2.32-.42-.16-.99,.16-1.33,.59-.34,.44-.52,.97-.68,1.48-.73,2.29-2.13,4.76-2.72,6.87-1.69,6.03-4.45,8.02-7.28,11.93-.48,.66-.83,1.33-1.15,1.94-2.82,5.35-5.04,11.03-7.86,16.4,.53,.1,1.05,.18,1.58,.27,.38-1.09,.79-2.19,1.29-3.3,.32-.7,.54-1.48,.97-2.08"/><path class="b" d="M143.06,73.06c.45-.02,.9,.03,1.35,0,.38-.03,.76-.13,1.14-.23,2.18-.56,4.35-1.12,6.53-1.68,.15-.01,.29-.02,.44-.02,.22,0,.43-.01,.64-.04,1.24,.25,2.64,.02,3.9-.2,1.24-.21,2.41-.64,3.6-.99-.11,.04-.22,.07-.33,.11-1.22,.47-2.28,1.27-3.37,2-1.76,1.16-3.65,2.14-5.52,3.1-1.13,.58-2.27,1.17-3.4,1.75-.28,.14-.55,.29-.83,.43-2,1.03-4.01,1.84-6.06,2.7-1.71,.72-3.09,2.08-4.8,2.85-.15,.07-.32,.17-.39,.31-.61,.19-1.2,.48-1.78,.77-1.69,.84-3.39,1.65-5.06,2.52-.54,.28-1.14,.54-1.63,.88-.25,.16-1.48,.94-1.58,1.1-.13,.22-.33,.32-.6,.3-.44,.09-.9,.14-1.28,.41-.08,.22-.25,.32-.5,.3-.68,.07-1.12,.62-1.74,.82-.64-.04-1.03,.24-1.35,.6-1.47,.41-2.81,1.3-4.08,2.18-.9,.62-2.04,1.59-3.2,2.25-.62,.36-1.24,.62-1.84,.7-.77-.03-1.28,.6-1.96,.86-.11,.23-.3,.33-.56,.31-.98,.16-1.34,1.26-2.33,1.41-.88,.19-1.45,.81-2.24,1.26-.08-.02-.16-.05-.25-.07-.18,.25-.41,.42-.66,.55h-.02c-.22,.12-.46,.2-.7,.28,1-1.03,1.99-2.06,2.88-3.19,1.66-2.11,2.95-4.52,4.8-6.44,1.21-1.25,2.83-2.8,2.42-4.24l-5.71,6.06c-1.01,1.08-2.03,2.16-3.02,3.26-1.72,1.92-3.36,3.91-4.94,5.94-.87,.28-1.72,.61-2.56,.97,1.04-1.41,2.08-2.83,3.13-4.24,2.8-3.78,5.65-7.56,9-10.83,.39-.38,.78-.75,1.17-1.12,3.33-1.32,6.75-2.4,10.04-3.84,.98-.43,1.89-.86,2.72-1.39,.69-.13,1.39-.39,2.02-.7,1.03-.5,1.99-1.05,3.04-1.49,.17-.07,.35-.14,.53-.2,1.19-.42,1.84-1.31,2.82-2.04,.08-.06,.16-.12,.24-.17,.31-.11,.62-.22,.93-.33,1.9-.7,3.82-1.35,5.76-1.94,.86-.26,1.8-.41,2.61-.76,.86-.37,1.65-.79,2.59-.84m19.76-.03c.72-.39,1.52-.59,2.3-.82,1.37-.41,2.7-.95,4.02-1.52-.27,.55-.51,1.11-.52,1.57-.07,.15-.15,.29-.23,.44-.66,1.27-1.34,2.49-2.39,3.56l.05,.02c-.69,.72-1.34,1.45-1.41,2.47h0c-.24,.13-.35,.32-.33,.58-.59,.52-1.04,1.11-.98,1.91h0c-.06,.02-.09,.12-.08,.27-.03,.07-.06,.14-.09,.22-.03-.02-.05-.04-.08-.07-.54,.49-.81,1.06-.64,1.76-.71,1.68-1.45,3.37-2.27,5.03-.1,.2-.2,.41-.2,.62,0,.08,.02,.16,.05,.23-.08,.21-.15,.4-.22,.59-.73,1.97-1.78,3.86-3.09,5.58-.76,1-2.18,2.34-2.66,3.68-.66,1.22-1.25,2.48-2.09,3.61-.08,.11-.18,.22-.27,.34-1.14,.2-2.28,.44-3.46,.64-2.17,.36-4.32,.63-6.49,1-.74,.13-1.48,.26-2.23,.42-1.14,.24-2.42,.65-3.57,.63-.76-.01-1.38-.36-2.21-.27-.98,.1-2.04,1.52-3.02,1.27-2.07-.52-3.44,1.11-5.14,1.7-.02-.02-.04-.05-.07-.07-.29-.29-.79-.26-1.22-.2-1.72,.2-3.5,.43-5.04,1.26-.11,.06-.21,.12-.31,.18,1.42-3.05,3.58-5.74,5.69-8.48,1.68-2.18,3.32-4.39,4.51-6.81,.3-.62,.58-1.29,.51-1.91-.07-.62-.63-1.1-1.23-.85-.41,.18-.7,.61-.95,1.02-2.01,3.25-4.02,6.5-6.04,9.75-.67,1.08-1.34,2.16-2.01,3.25-.73,1.18-1.47,2.37-2.05,3.62-.29,.61-.53,1.23-.77,1.86-1.15,.57-2.41,.92-3.62,1.37-1.2,.45-3.75,1.55-4.43,2.85-3,1.77-5.93,3.65-9.28,4.8-.37,.13-.62,.58-.93,.88-.62,.25-1.23,.51-1.83,.79,3.38-5.63,8.51-10.96,9.51-17.08-.6-.79-1.96,.38-2.6,1.41-2.14,3.49-3.79,7.82-6.74,10.77-.36,.36-.74,.7-1.07,1.09-.71,.87-1.07,1.94-1.41,2.97-.26,.79-.52,1.58-.78,2.37-4.05,2.19-7.78,4.84-11.46,7.56,3.57-6.99,8.56-13.73,12.9-20.39,.47-.72,.94-1.45,1.42-2.16,.84-.37,1.68-.75,2.48-1.19,1.38-.75,2.68-1.65,3.97-2.55,.44-.3,.9-.65,1.15-1.09,1.93-1.09,4.17-1.78,6.06-2.98,.69-.44,1.36-.91,2.08-1.3,.69-.36,1.42-.64,2.13-.96,.92-.41,1.8-.88,2.69-1.35,.87-.46,1.76-.94,2.6-1.46,.34-.11,.69-.33,1-.48,.47-.34,.89-.71,1.31-1.11,1.61-1.36,3.78-1.52,5.58-2.64,1.12-.69,2.14-1.55,3.36-2.04,.91-.36,1.89-.5,2.81-.86,1.09-.44,2.03-1.2,2.94-1.94,.06-.05,.12-.1,.18-.15,.26,.01,.56-.11,.78-.29,.32-.25,.55-.59,.87-.84,.4-.3,.91-.43,1.39-.57,1.57-.45,2.98-1.14,4.42-1.9,1.24-.65,2.69-.9,3.88-1.66,.69-.44,1.24-1.06,1.88-1.58,3.09-2.54,7.65-2.58,10.94-4.89,.68-.48,1.29-1.04,2.02-1.43m.45-3.81c.44-.05,.88-.11,1.32-.16-.05,.01-.1,.03-.16,.04-.64,.15-1.3,.25-1.95,.37,.28-.06,.54-.14,.79-.24m-3.23,36.19c-.03,.28-.06,.56-.13,.83-.27,1.23-1.11,1.98-2.07,2.78-.11,.04-.21,.1-.3,.17-.15,.12-.28,.26-.4,.41-.65,.55-1.34,1.22-1.54,1.97-1.28,1.4-2.75,2.67-3.53,4.33-.62,1.33-.79,2.9-1.9,3.94-.25,.24-.55,.45-.76,.72-.15,.21-.23,.42-.27,.64-1.32,.92-2.73,1.71-4.12,2.55-1.71,1.03-3.38,2.12-5.01,3.26,.04-.37,.06-.74,.1-1.11,.09-.72,.29-1.44,.5-2.15,.88-3.02,2.9-5.12,4.87-7.61,1.24-1.57,2.79-2.96,3.82-4.65,.84-1.39,1.32-2.97,2.44-4.18,.39-.42,.79-.84,1.18-1.28,2.36-.33,4.73-.54,7.09-.65m2.08-.06c.68-.01,1.37-.01,2.05,0,1.04,.01,2-.06,2.99-.17-1.21,1.02-2.35,2.12-3.33,3.3-.06,.07-.13,.16-.19,.25-.39,.15-.78,.34-1.13,.56-1.08,.67-1.96,1.57-2.85,2.46-1.91,1.92-3.87,3.79-5.88,5.62,.05-.35,.09-.72,.09-1.1,0-.31,.51-.63,.78-.94h0c.43-.41,.87-.82,1.3-1.24,.18-.2,.34-.41,.46-.63,.17-.1,.33-.21,.47-.35,.63-.65,1.28-1.59,1.72-2.41,.64-.52,.84-1.42,1.4-2.01,.82-.87,1.73-2.12,2.12-3.35m-24.02,18.14c-1.18,1.87-.84,4.19-2.05,6.02-.12,.18-.46,.59-.81,1.07-3.57,2.78-7,5.73-10.39,8.7-1.5,1.32-3,2.84-4.6,4.2-1.28,1.09-2.64,2.06-4.11,2.74-3.29,1.5-6.05,4.61-8.55,7.15-.28,.11-.55,.3-.8,.48-2.07,1.5-4.15,2.99-6.16,4.56-.03,0-.05,0-.07,.01,.01,0,.02,.01,.03,.02-.59,.46-1.18,.92-1.76,1.39-1.28,1.04-2.54,2.12-3.74,3.25-.46,.43-.96,.79-1.17,1.24-.06,.07-.12,.15-.18,.24-.51,.26-.92,.67-1.33,1.07-.97,.98-1.93,1.97-2.88,2.96,1.36-2.74,2.75-5.46,4.18-8.16,1.47-2.78,3.39-5.15,5.02-7.78,1.88-3.03,3.69-6.03,5.23-9.21,.14-.28,.27-.57,.4-.86,1.34-2.91,2.5-5.93,4.34-8.6,.47-.68,1.01-1.42,.99-2.17,0-.14-.02-.26-.04-.36,.72-1.59,.97-3.3,1.85-4.86,.62-1.09,1.52-2,2.27-3.01,1.92-2.62,2.63-5.69,3.43-8.76,1.53-.56,3.13-.96,4.49-1.91,3.3-.96,6.6-1.91,9.91-2.87,.81,.2,1.61,.36,2.37-.19,.63-.14,1.26-.28,1.89-.43l1.25-.19s-.07-.03-.11-.04c2.18-.41,4.38-.63,6.56-1.22,1.84-.5,3.69-.92,5.55-1.27-1.5,2.57-2.84,5.4-5.03,7.43-.16,.15-.31,.3-.45,.47-1.71,1.96-2.56,5.27-4.31,7.35-.42,.51-.88,1-1.23,1.55m-40.47-1.64s.05-.03,.08-.05c.01,.02,.02,.04,.04,.05-.04,0-.08,0-.11,0m-21.1,13c-.29,.21-.58,.42-.88,.63h0c-1.34,.41-2.56,.99-3.73,1.66,.69-.97,1.38-1.95,2.07-2.92,5.59-7.86,11.17-15.73,16.83-23.54,.73-.37,1.48-.7,2.24-1.03,.16-.07,.33-.14,.49-.21-1.89,2.72-3.72,5.48-5.56,8.23-3.1,4.66-6.21,9.32-9.31,13.99-.71,1.07-1.42,2.14-2.16,3.19m36.46-51.69c.27-.4,.52-.82,.75-1.25,.02-.04,.04-.08,.07-.13h.04c1.36-.3,2.52-1.02,3.84-1.48,1.79-.63,3.69-.84,5.48-1.45,.2-.07,.4-.14,.6-.22,.95-.36,1.89-.78,2.88-.97,.19-.04,.39-.06,.58-.08-.61,.21-1.23,.39-1.79,.58-1.72,.58-3.52,1.11-4.97,2.2-.77,.38-1.41,.86-2.16,1.35-1.14,.75-2.24,.78-3.41,1.33-.87,.41-1.75,.77-2.65,1.11,.26-.32,.51-.65,.74-.99m46.33-21.51c-.55,.18-1.09,.37-1.62,.61-1,.46-1.9,1.1-2.86,1.65-2.63,1.51-5.62,2.32-8.25,3.81l-.07,.03h0c-.7,.31-1.39,.62-2.08,.94l-.03,.06c-1,.43-2.01,.87-3.01,1.32-.54,.24-1.09,.49-1.57,.85-.34,.25-.63,.56-.97,.82-.27,.21-.56,.37-.87,.52-.08,.01-.15,.03-.23,.04-1.18,.23-2.34,.59-3.49,.94-3.35,1.03-6.7,2.05-9.98,3.3-2.13,.81-4.12,1.52-6.28,2.13-.03,0-.05,0-.08,0v.02c-.09,.03-.2,.06-.3,.09-.88,.24-1.78,.45-2.67,.63,.76-1.56,1.58-3.05,2.91-4.12,.03-.02-1.2-.23-1.38-.2-.79,.14-1.24,.66-1.81,1.2-.18-.06-.38-.08-.6-.07-.23,.51-.47,1.02-.7,1.52-.54,.76-1.03,1.59-1.64,2.21-.65,.08-1.29,.15-1.94,.19-.88,.07-1.77,.11-2.61,.4-.53,.18-1.02,.45-1.55,.64-1.01,.37-2.08,.41-3.13,.58-.9,.14-1.8,.37-2.68,.62-.64,.18-1.18,.18-1.81,.19-.05-.01-.09-.03-.14-.04-.02,.02-.03,.03-.05,.05-.04,0-.07,0-.11,0-.08,0-.15,0-.23,.02-.03-.04-.07-.07-.12-.1-.67-.44-1.76-.26-2.56-.36-.5-.06-1-.13-1.52-.13-2.61-.04-5.11,1.34-7.66,2.11-.91,.27-1.83,.47-2.73,.79-2.07,.75-3.84,2.13-5.51,3.54-.83,.71-1.66,1.44-2.39,2.24-.18,.2-.35,.4-.52,.61-.16,.15-.29,.34-.42,.5-.99,1.3-2.16,2.49-3.46,3.53-.32,.26-.63,.46-.85,.78-.27,.39-.43,.85-.71,1.25-.69,.99-1.57,1.87-2.44,2.73-.43,.42-.93,.77-1.34,1.2-.58,.6-1.05,1.31-1.61,1.93-1.09,1.19-2.28,2.3-3.46,3.41-.34,.32-.68,.64-1.07,.9-.23,.15-.59,.27-.73,.52v.02c-.15,.08-.28,.15-.37,.19-1.18,.53-2.37,1.06-3.55,1.57-.54,.23-1.08,.46-1.62,.68-.48,.19-.96,.39-1.46,.47-.48,.08-.97,.06-1.45,.09-.66,.04-1.32,.18-1.97,.32-.7,.15-1.4,.3-2.1,.45-.02,0-.04,0-.06,0-.28,.03-.55,.13-.82,.22-1.62,.52-3.31,.44-4.92,.23-.6-.08-1.26-.24-1.91-.29-.73-.05-1.46,.06-2.08,.62-.3,.27-.5,.64-.82,.89-.06,.05-.12,.09-.16,.15-.07,.11-.04,.25,.02,.36,.29,.54,1.1,.56,1.77,.52,1.42-.09,2.84-.17,4.26-.38,.59-.09,1.19-.19,1.78-.23,.7-.04,1.4,0,2.1,0,.97-.02,1.94-.17,2.9-.36,.32-.06,.71-.1,.98-.24,.68-.05,1.45-.21,1.98-.32,.53-.12,1.03-.33,1.53-.55,2.94-1.26,5.88-2.52,8.68-4.06,.25-.14,.53-.34,.5-.59h0c.65-.47,1.24-1.01,1.78-1.59,1.1-1.19,2-2.53,3.08-3.73,.62-.69,1.29-1.34,1.92-2.02,1.38-1.51,2.52-3.2,3.89-4.72,1.01-1.12,2.14-2.14,3.28-3.16,.64-.58,1.29-1.16,1.93-1.74,.4-.36,.97-.67,.98-.99,.22-.07,.44-.16,.65-.31,.83-.58,1.45-1.37,2.24-2,.51-.41,1.1-.73,1.69-1.02,3.23-1.57,6.83-2.05,10.34-2.5,.74-.1,1.66-.22,2.37-.14,.77,.09,1.56,.21,2.34,.19,.32,.06,.65,.09,.98,.08,.81-.02,1.61-.21,2.41-.39,1.03-.24,2.07-.48,3.1-.73,.52-.12,1.04-.24,1.57-.29,.41-.03,.82-.02,1.23-.02,.68,0,1.36-.08,2.05-.16-.72,1.03-1.36,2.14-2.03,3.22-.15,.05-.31,.11-.46,.16-.96,.37-1.89,.83-2.81,1.28l-6.59,3.26c-1.53,.76-3.02,1.69-4.58,2.32-1.15,.46-2.3,.93-3.45,1.39-1.31,.53-2.64,1.07-3.83,1.82-.92,.58-1.76,1.29-2.73,1.79-1.5,.78-3.19,1.03-4.83,1.39-1.64,.36-3.35,.89-4.53,2.07-.04,.04-.07,.07-.09,.12-.07,.18,.19,.28,.39,.29,1.41,.07,2.86-.13,4.24-.57,.72-.23,1.42-.53,2.12-.83,2.71-1.16,5.41-2.37,8.09-3.61,1.31-.61,2.63-1.23,3.93-1.85,.81-.39,1.64-.91,2.48-1.16,.28-.09,.56-.14,.84-.15,.25-.01,.5-.1,.74-.19,1.59-.63,3.01-1.63,4.52-2.44,.68-.36,1.37-.68,2.07-1,.7-.33,1.41-.65,2.11-.98-.13,.18-.27,.35-.42,.5-1.08,.59-1.47,1.93-2.19,2.91l-.73,.97c-.92,.81-1.06,2.31-2.1,3-1.4,.91-1.36,3.08-2.77,3.99l-.03,.03c-1.04,.72-1.19,2.31-2.21,3.04-.61,.39-1.13,.91-1.62,1.48-1.91,1.11-4.46,1.72-6.18,3-.27,.2-.45,.46-.58,.74-.2,.03-.42,.09-.66,.17-.64,.22-1.2,.62-1.77,.99-.93,.6-1.92,1.12-2.9,1.63-1.22,.64-2.45,1.26-3.67,1.89-2.12,1.09-4.22,2.21-6.23,3.46h0l-.04,.03c-1.08,.67-2.15,1.38-3.16,2.15-1.33,1.02-2.6,2.19-4.18,2.84-.51,.21-1.06,.37-1.48,.73-.17,.14-.32,.32-.52,.41-.18,.08-.38,.07-.58,.1-.5,.06-.98,.34-1.3,.73-2.31,.47-3.26,2.91-5.3,3.76-1.43,.04-1.72,1.75-3.07,1.9-.78-.01-1.29,.61-1.97,.89-.08,.23-.25,.33-.51,.31-2.38,.92-4.13,2.71-6.19,4.07-.11,.23-.29,.34-.56,.33-1.32,.29-1.71,1.82-3.05,2.08-.09,.27-.29,.42-.59,.45-1.16,.28-1.66,1.27-2.41,1.99-.03,.03-.06,.06-.08,.1-.14-.2-.38-.15-.7,.19l-.13,.25-.29,.02c-1.06,.21-1.75,1-2.62,1.52-.32,.49-.68,.91-1.09,1.28-.99,.46-1.92,1.02-2.8,1.66-.42,.16-.85,.31-1.28,.44-.33,.24-.57,.56-.71,.93,0,.05,.02,.1,.03,.16-.54,.21-1.1,.37-1.64,.58-.13,.05-.25,.11-.37,.17,1.07,1.22,2.18,2.41,3.31,3.56,1.32-.74,2.58-1.57,3.71-2.56-.03-.1-.08-.19-.14-.27,2.24-1.87,4.99-3.03,7.42-4.63,.72-.47,1.41-.99,2.2-1.35,.41-.19,.84-.33,1.26-.47,.03,0,.06-.01,.1-.03,.07-.02,.14-.05,.21-.08,.41-.14,.82-.3,1.2-.51,.34-.19,.67-.43,.85-.77,.04-.08,.07-.16,.09-.24,.17-.16,.33-.32,.49-.47,1.45-1.42,2.93-2.94,4.85-3.64,1.33-.49,2.81-.56,4.03-1.29,.76-.45,1.36-1.13,2.1-1.61,1.14-.74,2.55-.97,3.7-1.68,1.17-.72,1.96-1.87,2.93-2.83,.78-.77,1.71-1.45,2.53-2.18,.11-.07,.23-.14,.34-.21,3.33-2.01,6.66-4.03,9.99-6.04,1.06-.64,2.13-1.29,3.24-1.84,2.16-1.08,4.54-1.85,6.49-3.23-.87,1.24-1.7,2.52-2.72,3.6-1.14,.58-1.25,2.29-2.28,2.99l.05-.05c-1.17,.64-1.31,2.36-2.35,3.14-.08,.37-.27,.66-.56,.87-.67,.59-1.05,1.53-1.7,2.15-.09,.34-.26,.61-.52,.83-2.35,4.4-5.42,8.22-8.2,12.27l.06-.04c-.31,.27-.59,.58-.86,.89-.61,.42-1.22,.83-1.85,1.22-1.68,1.03-3.08,2.49-5.06,3.1-1.43,1.35-2.99,2.6-4.26,4.08-2.49,2.88-6.2,4.5-8.5,7.54-.41,.06-.83,.13-1.24,.19l.03-.02c-1.24,.83-1.79,2.25-3.01,3.09-.09,.3-.31,.47-.64,.48-.43,.05-.76,.23-1.06,.46,1.08,.75,2.19,1.47,3.3,2.18,2.64-2.44,5.21-4.95,8.12-7.08h0c1.39-.53,2.59-1.39,3.58-2.4,1.3-1.32,2.67-2.56,4.09-3.74-1.75,2.59-3.21,5.36-4.92,7.98-.12,.18-.19,.33-.21,.45-.35,.2-.63,.66-.93,1.01l-.95,1.83c-1.4,1.17-1.59,3.22-2.86,4.47,0,.29-.13,.51-.39,.65,0,0-.02,.02-.03,.02,.7,.37,1.4,.73,2.11,1.08,.09-.14,.18-.29,.27-.43,2.19-3.42,3.99-6.36,6.1-9.68,1.1-1.31,2.1-3.4,2.97-4.66,1.75-2.54,3.53-5.06,5.31-7.58,1.43-.97,2.88-1.92,4.34-2.84-2.94,3.57-5.43,7.09-7.59,11.44-.66,1.34-1.77,2.65-2.58,3.92-1.91,3.01-4.47,5.71-6.48,8.68-.38,.56-.76,1.15-1.15,1.74,.77,.37,1.54,.72,2.32,1.07,1.46-2.24,3.03-4.45,4.78-6.62,1.37-1.69,2.8-3.36,3.91-5.22,1.3-2.18,2.12-4.56,3.34-6.78,2.6-4.72,6.71-8.33,10.16-12.42,4.82-3.01,9.63-6.04,14.43-9.08-.19,1.04-.26,2.08-.64,3.09-.71,1.9-2.39,2.85-3.61,4.38-.54,.68-.77,1.53-1.22,2.26-1.45,2.35-4.03,3.88-5.59,6.27-2.06,3.18-4.01,6.8-5.32,10.27-1.1,2.92-2.51,3.98-4.15,6.68-.69,1.14-1.39,2.28-2.03,3.45-1.13,2.06-2.93,4.83-3.87,7.48,.89,.27,1.78,.52,2.69,.76,.96-1.44,1.94-2.89,2.59-4.35,.9-2,1.71-4.06,2.66-6.05,.74-1.55,1.57-3.06,2.6-4.48,1.2-1.66,2.65-3.18,3.56-4.99,.83-1.66,1.15-3.46,1.98-5.12,.61-1.22,1.48-2.32,2.33-3.41,2.49-3.15,4.97-6.3,7.46-9.45,.77-.98,1.57-1.99,1.97-3.14,.4-1.13,.38-2.27,.52-3.41,.07-.57,.18-1.13,.31-1.68,1.31-.83,2.62-1.66,3.93-2.49,1.07-.02,1.7-.67,2.29-1.4,.42-.27,.84-.55,1.27-.82,.53,.1,.96-.02,1.26-.48,1.04-.56,2.07-1.11,3.11-1.67h0c3-1.61,5.99-3.23,8.99-4.84-1.55,3.78-3.41,7.48-5.91,10.8-.34,.56-.67,1.12-1,1.69-.22,.59-.44,1.17-.66,1.75-.3,.57-.46,1.13-.49,1.7-.38,.83-.75,1.66-1.13,2.48-.21,.29-.35,.51-.41,.61-.82,1.44-1.63,2.88-2.45,4.32-.07,.03-.14,.05-.21,.08-.35,.65-.69,1.3-1.04,1.95-.11,.25-.22,.51-.33,.76-.41,.73-.82,1.46-1.24,2.18-.84,1.48-1.67,2.96-2.51,4.44-.06,.07-.12,.13-.19,.18-.33,.63-.65,1.25-.98,1.88-.62,.51-.97,1.08-.96,1.72-1.22,2.27-2.3,4.95-3.86,6.96-.31,1.05-.79,2.01-1.49,2.89-1.59,3.37-3.1,6.77-4.8,10.09-.27,.53-.54,1.07-.8,1.61-.52,.52-1.01,1.06-.94,1.26,0,.02,.02,.04,.03,.06-.31,.33-.65,.64-.98,.94,1.12,.11,2.24,.19,3.37,.25,1.09-1.09,2.19-2.17,3.36-3.18-.08-.06-.16-.11-.24-.16,.06,0,.13-.02,.18-.04,.22-.07,.43-.24,.83-.64,1.67-1.71,3.26-3.5,4.89-5.25,.15-.16,.3-.32,.44-.49,.14-.1,.29-.21,.43-.31,.21-.06,.44-.16,.69-.31,.5-.31,.91-.74,1.26-1.21,.06-.07,.11-.15,.16-.23,.17-.19,.34-.38,.48-.59,.1-.15,.19-.32,.24-.49,.27-.4,.55-.8,.89-1.15,1.38-1.4,3.16-2.16,4.48-3.65,.08-.09,.15-.17,.23-.25,.43-.32,.81-.62,1.05-.79,.6-.41,1.24-.89,1.53-1.51,.39-.29,.79-.59,1.16-.91,.76-.64,1.47-1.34,2.2-2.02,2.26-2.11,4.74-3.99,7.39-5.62,1.08-.66,2.24-1.1,3.32-1.73,.76-.44,1.12-1.36,1.79-1.88,.91-.7,1.59-1.18,2.38-2.1,.57-.67,1.28-1.22,1.99-1.77,1.71-1.33,3.43-2.67,5.14-4-.38,1.34-.55,2.73-.48,4.08,.03,.6,.09,1.24-.22,1.8-.34,.62-1.06,.98-1.65,1.41-1.07,.78-1.84,1.93-2.11,3.15-.19,.9-.13,1.85-.61,2.67-.57,.98-1.73,1.49-2.73,2.1-3.65,2.22-4.75,5.89-7.37,8.84-.45,.5-1.18,1.31-1.38,2.1-.18,.29-.34,.58-.5,.87-.42,.77-1.27,1.19-1.76,1.78-.65,.78-.94,1.69-1.44,2.59-1.05,1.9-2.68,3.44-4.67,4.44-1.75,.88-2.99,2.17-4.61,3.32-.33,.23-.69,.44-1.06,.63,1.72-.21,3.42-.46,5.11-.77,2.17-2.31,5.22-3.05,7.04-5.88,.44-.68,.77-1.41,1.18-2.11,.56-.97,3.16-3.18,4.38-5.08,.06-.08,.12-.15,.17-.21,1.75-2.71,2.79-5.86,5.62-7.91,1.69-.28,2.49-1.54,3.35-2.73,.15-.38,.3-.76,.45-1.14,.59-1.51,.29-3.08,1.48-4.46,.65-.75,1.52-1.29,2.21-2,2.91-3,1.48-7.32,3.86-10.55,.13-.17,.24-.35,.36-.53,2.07-1.61,4.14-3.22,6.21-4.83,1.27-.99,2.54-1.98,3.86-2.9h0c-.65,1.01-1.3,2.03-1.95,3.04-.66,1.04-1.33,2.09-1.93,3.15h0c-.31,.21-.45,.47-.43,.78-.45,.86-.86,1.73-1.18,2.63h0c-1.31,1.25-2.06,2.89-2.9,4.45-.08,.15-.16,.3-.25,.46-.18,.32-.37,.64-.6,.93-.31,.37-.69,.68-1.03,1.04-.4,.42-.72,.88-1.01,1.37-1.2,1.24-2.37,2.53-3.26,3.97-1.15,1.87-1.82,3.96-3.12,5.74-.82,1.12-1.87,2.09-2.67,3.23-.44,.62-.8,1.28-1.22,1.91-.84,1.25-1.9,2.36-2.98,3.44-1.45,1.45-3.06,2.77-4.5,4.23-.25,.25-.97,1.18-1.26,1.93-1.53,1.98-2.68,4.21-4.05,6.3-.13,.2-.28,.4-.41,.6,.51-.13,1.01-.25,1.51-.39,.28-.44,.56-.88,.85-1.31,.99-1.48,2.06-2.92,3.08-4.39,.14-.09,.27-.21,.39-.32,1.59-1.52,2.79-3.31,4.27-4.87,1.66-1.75,3.39-3.43,4.96-5.26,1.76-2.05,3.42-4.18,4.97-6.38,.83-1.24,1.84-2.38,2.61-3.65,.42-.7,.72-1.37,1.09-2.03,.06-.1,.11-.2,.17-.3,.36-.44,.72-.87,1.07-1.31-.03,.11-.05,.22-.08,.33,1.27-1.22,2.23-2.63,3.11-4.08,1.29-1.66,2.48-3.37,3.37-5.18,.26-.39,.46-.74,.55-.89,.77-1.41,1.26-2.92,2.01-4.34,.89-1.7,2.04-3.22,3.15-4.76,.32-.44,.63-.89,.94-1.34,.65-.65,1.27-1.31,1.82-2.01,1.89-1.18,3.76-2.38,5.52-3.73,1.88-1.45,3.61-3.08,5.15-4.85,1.03-1.19,2.06-2.49,3.52-3.13,.09-.04,.18-.08,.27-.12,.02,0,.04,0,.07-.01,.63-.17,.91-.85,1.28-1.38,.96-1.35,2.57-2.32,4.11-3.32,.55,.07,1.1,.15,1.63,.21,1.37,.15,2.74,.13,4.11,.1,.18-.92,.34-1.84,.5-2.77-1.12,.06-2.23,.1-3.34,.13,.55-.61,1.03-1.27,1.55-1.9,.73-.89,1.54-1.72,2.38-2.52,.11-.96,.2-1.93,.28-2.9-1.4,1.39-2.68,2.9-4.2,4.18-1.35,1.14-2.86,2.07-4.31,3.09-1.51-.12-3.01-.35-4.52-.29-1.19,.05-2.39,.17-3.59,.27v-.02s.06,0,.1-.01l.17-.03c.24-1.02,.75-1.66,1.3-2.53,.63-1,1.05-2.12,1.68-3.14,.75-1.22,1.59-2.4,2.46-3.55,.41-.54,.76-1.11,1.12-1.67,.47-.65,.88-1.33,1.35-1.98,.06-.08,.12-.16,.18-.25,.16-.21,.33-.42,.51-.63,1.04-1.15,2.24-2.2,3.07-3.51,1.5-2.36,2.89-4.8,4.39-7.17-.09-.76-.18-1.51-.29-2.26-.17,.2-.34,.4-.51,.6-2.73,3.34-4.14,7.48-7.06,10.69-.03,.04-.06,.07-.1,.11h-.01c-.23,0-.42,.2-.56,.39-.9,1.18-1.91,2.39-2.69,3.61-.78,1.24-2,2.19-2.71,3.47-.46,.84-.93,1.69-1.39,2.53-.16,.29-.64,.95-.99,1.54-.86,1.2-1.48,2.54-1.81,3.92-.46,.02-.92,.02-1.37,0-1-.03-1.98-.15-2.98-.18-.27,0-.53,0-.79,0,.12-.29,.22-.59,.29-.89,.05-.2,.08-.4,.1-.6,.42-.35,.34-1.09,.54-1.64,.1-.29,.32-.54,.52-.79,3.58-4.27,5.79-8.82,8.19-13.67,.03-.06,.06-.12,.08-.19,.18-.38,.29-.71,.36-1.05,.3-.18,.53-.47,.74-.76,.98-1.39,1.62-2.95,2.24-4.5,.8-1.99,1.61-3.98,2.41-5.97,.03-.08,.06-.16,.08-.25,.47-.64,.85-1.4,.96-1.76,.13-.39,.22-.8,.46-1.15,.08-.11,.16-.21,.26-.3,1.4-.66,2.77-1.38,3.98-2.29h0c-.26-1.03-.53-2.05-.82-3.06-.02,0-.04,0-.06,.01,.01-.04,.02-.07,.03-.11-.32-1.11-.67-2.22-1.03-3.31-.1,.06-.2,.12-.29,.19,.02,.28-.1,.48-.36,.61,.05,.12,.11,.24,.16,.36-.05,.04-.09,.09-.15,.13-.21,.21-.42,.42-.6,.65-.09,.07-.18,.14-.27,.23-.6,.56-.88,1.33-1.14,2.07-.04,.11-.07,.21-.11,.32,0,.02-.02,.05-.02,.07-.71,.16-1.46,.28-2.12,.38-1.07,.16-2.19-.04-3.18,.43-.26,.12-.51,.29-.78,.39-.4,.13-.83,.09-1.23,.22-.21,.07-.4,.17-.58,.28-.45-.15-.88,.06-1.31,.22-.97,.22-1.99,.76-2.79,.99-1.69,.51-3.54,.3-5.26,.34-.3,0-.61,0-.9,.1-.19,.06-.36,.16-.54,.25-.17,.1-.34,.19-.51,.28-.11,.06-.23,.13-.34,.21-.03,0-.06,0-.09,0-.35,.05-.7,.17-1.03,.33-.11,.02-.21,.04-.32,.07-1.01,.23-2.03,.44-3.04,.66-.14-.03-.27-.04-.42-.02-.23,.03-.43,.12-.62,.25-.88,.2-1.76,.41-2.62,.65-.41,.11-.82,.21-1.24,.3,.86-.44,1.71-.87,2.57-1.31,.65-.15,1.01-.28,1.25-.52,.54-.18,1.05-.46,1.49-.82,.17,.02,.36,0,.52-.05,2.45-.68,4.39-2.55,6.79-3.16,2.49-.64,4.88-1.76,6.96-3.29,.1-.07,.2-.15,.29-.22,.78-.42,1.55-.83,2.33-1.23h0c.45-.15,.89-.3,1.33-.53,1.36-.7,2.57-1.65,3.83-2.5,.89-.59,1.82-1.14,2.75-1.66-.14-.35-.28-.69-.42-1.03-2.29,1.26-4.6,2.44-7.01,3.34-2.2,.83-4.23,2.01-6.25,3.25"/><path class="b" d="M168.82,48.53l-.05,.03c-.15,.03-.31,.07-.46,.13-.47,.18-1.13,.44-1.64,.8-.52-.19-1.59,.27-2.45,.7-.36,.05-.72,.17-1.08,.38-.59,.34-1.22,.61-1.85,.88-.34,.12-.68,.23-1.02,.33-.37-.16-.64-.09-.79,.23-.48,.13-.97,.25-1.45,.35-.33,.07-.66,.13-.99,.18-.04-.06-.1-.11-.13-.18-.53-.32-.86-.18-1.01,.4-.26,.05-.53,.11-.79,.17-.33-.09-.66,.01-1,.18h0c-.3,.13-.61,.27-.91,.4-.24,.08-.48,.16-.72,.24-.72-.14-1.33,.08-1.93,.38-.54,.03-1.08,0-1.62,.06-.94,.09-1.86,.42-2.76,.76-.19,.07-.38,.15-.57,.22-.17-.04-.34-.09-.5-.14h0c-.06-.13-.13-.26-.21-.39-.08,.17-.17,.33-.25,.5-.02,.03-.04,.07-.06,.11-.01,0-.03,.01-.04,.02-.11,.03-.23,.06-.35,.08-.18,.03-.36,.03-.54,.02-.1-.03-.2-.06-.3-.08h0s-.08,.04-.12,.06c-.15-.01-.3-.02-.45-.02-1.01,0-1.98,.49-2.96,.83-.16-.05-.31-.09-.47-.14-.71,.41-1.48,.49-2.26,.49-.04,.08-.07,.16-.11,.24-.12,.01-.25,.03-.37,.04-.28,.03-.55,.07-.83,.1-.15-.04-.29-.08-.44-.12-1.14,.15-2.29,.3-3.43,.45-.03,0-.06,0-.08,0-.31-.18-.63-.16-.96-.05-1.27-.12-2.57-.43-3.84-.26-1.27,.17-2.43,.91-3.69,1.22-1.31,.32-2.64,.15-3.97,.18-1.77,.03-3.6,.09-5.36,.54-.19,.05-.37,.11-.56,.17,.01-.04,.02-.07,.02-.07-2.31,.26-4.44,1.03-6.34,2.43-.49,.35-1.16,.49-1.58,.92-1.87,.84-3.57,2-5.26,3.16-1.56,1.07-3.13,2.13-4.55,3.36-.62,.54-1.22,1.1-1.89,1.59-2.21,1.62-5.14,2.42-6.93,4.37-2.01,1.38-3.9,2.91-6.16,3.99-1.17,.56-1.66,1.38-2.5,2.23-.81,.82-2.03,1.18-3.1,1.65-1.09,.48-2.22,.98-3.03,1.84,0,.01,0,.02,0,.03-1.12,.74-2.35,1.22-3.54,1.9-1.15,.65-1.84,1.64-3.22,1.98-.72,.18-1.47,.2-2.17,.45-.42,.15-.81,.37-1.18,.6-.38,.13-.75,.29-1.13,.43-2.45,1.17-4.86,2.42-7.08,3.99-.39,.27-.81,.46-1.25,.63-.96,.82-1.96,1.63-3.04,2.13-.51,.23-1.02,.29-1.51,.56-.41,.46-.91,.88-1.2,1.38,.95,.06,1.91-.07,2.87-.13,1.85-.39,3.49-.78,5.13-2.21,1.72-1.5,4.33-2.03,6.23-3.56h0c.12-.05,.24-.09,.36-.13,.66-.25,1.31-.49,1.97-.74,1.13-.42,2.26-.85,3.29-1.47,1.9-1.16,3.68-2.32,5.62-3.42,.97-.56,2-1.03,2.91-1.7,.09-.06,.39-.37,.73-.73,2.69-1.8,5.37-4.14,8.27-5.44,.17-.08,.34-.14,.52-.21,.45-.17,.91-.32,1.32-.57,.31-.2,.58-.46,.87-.69,1.16-.96,2.57-1.73,3.81-2.6,.39-.27,1.2-.54,1.51-.85,.03-.03,.07-.08,.12-.14,.4-.39,.85-1.06,1.2-1.32,.5-.37,1.03-.7,1.53-1.06,1.27-.94,2.53-1.83,3.88-2.67,1.29-.8,2.64-1.59,3.89-2.49,0,0,.02,0,.02,0,.3-.22,.58-.47,.91-.65,.22-.11,.44-.22,.66-.32,.23-.11,.46-.21,.69-.32,.34-.09,.66-.24,.95-.44,.22-.1,.44-.2,.65-.31,.21-.11,.41-.23,.6-.37,.26-.22,.48-.46,.71-.7,.27-.19,.56-.32,.87-.4,.32-.03,.65-.03,.98-.1,.45-.09,.86-.29,1.28-.46,.3-.13,.6-.24,.92-.29,.3-.01,.6-.07,.89-.02,.86,.15,2.62-.49,3.55-.62,1.66-.23,3.36-.85,4.99-.84,1.58,0,3.12,.22,4.71-.14,1.19-.27,2.4-.23,3.61-.35,.21-.02,.43-.05,.65-.09,.41,.01,.81-.07,1.21-.23,.24-.04,.48-.07,.72-.08,.8-.03,1.6,.11,2.42,.04,1.24-.11,2.48-.38,3.68-.8,1.07,.12,2.07-.2,3.06-.59,1.36-.13,2.7-.3,4.07-.58,1.28-.27,3.09-1.09,4.33-1.08,.28,0,.55,.06,.82,.09,.95,.08,1.89-.36,2.82-.51,.77-.12,1.7-.05,2.37-.6,.12-.1,.21-.23,.35-.32,.35-.21,.76,.01,1.16,.05,.51,.06,1.01-.21,1.48-.47,.22-.12,.44-.24,.66-.36,.19-.11,.34-.24,.46-.41,1.12,.36,2.23-.22,3.32-.65,1.29-.51,2.56-1.07,3.81-1.68,.89-.44,1.66-.57,2.52-.84,.33-.07,.66-.15,.97-.26-.36-.76-.73-1.52-1.11-2.28-.23,.03-.47,.05-.7,.1,0,0-.02,0-.03,0"/><path class="b" d="M156.78,79.01h-.06s.03,0,.04,0h.01"/><path class="b" d="M152.48,27.48h-.29c-1.47,.01-1.88,1.74-3.27,1.89-.12,.26-.33,.37-.62,.35-1.13,.19-1.63,1.18-2.43,1.8-.1,.13-.22,.25-.34,.35-.13-.06-.26-.12-.39-.18-.13,.24-.33,.36-.61,.34-.07,.13-.14,.27-.22,.41-.19,.03-.39,.05-.6,.05-.26,.14-.51,.29-.7,.49-.11,.02-.23,.05-.34,.07-1.36,.28-2.63,1.75-3.79,2.5-1.52,.98-3.11,1.85-4.76,2.6-.83,.38-1.68,.72-2.45,1.19-.78,.47-1.48,1.06-2.18,1.62-1.23,.98-2.5,1.9-3.81,2.77-.02,0-.04,0-.06,0-.07,.05-.13,.11-.2,.16-.84,.55-1.7,1.08-2.57,1.58-.14-.06-.28-.11-.41-.17-.19,.21-.36,.43-.5,.68-.05,.03-.1,.06-.15,.08-1.19,.65-2.4,1.25-3.59,1.91-.48,.26-.95,.53-1.41,.82-4.29,2.63-7.88,6.43-12.59,8.25-.91,.35-1.6,.88-2.16,1.53-.38,.14-.74,.34-1.1,.55-2.01,1.2-3.92,2.56-5.7,4.08-.39,.33-.78,.82-1.13,1.4-.01,.01-.02,.02-.03,.03-.15,.18-.28,.4-.38,.6-1.12,2.08-3.22,3.59-5.56,3.98-.73,.12-1.47,.14-2.18,.34-.6,.17-1.15,.47-1.7,.76-.9,.48-1.79,.97-2.69,1.45-.73,.39-.87,.72-.76,1.06-.61,.42-1.23,.9-1.9,1.11-.57,.18-1.19,.15-1.79,.26-.85,.16-1.57,.6-2.22,1.17-.2,.02-.39,.09-.57,.21,.06,.04,.13,.09,.19,.14-.54,.53-1.04,1.13-1.52,1.71-.78,.93-1.7,1.88-2.77,2.38-.5,.23-1.03,.36-1.6,.36-.35,0-.7-.07-1.03,.03-.46,.13-.78,.51-1.15,.8-.83,.62-1.94,.73-2.9,1.13-1.09,.45-1.99,1.31-2.5,2.37-3.14,.21-4.72,2.96-7.08,4.58-1.93,1.33-4.76,2.68-6.65,4.54l-.11-.11c-1.73,.78-3.25,1.79-3.99,3.64-.18,.11-.3,.25-.38,.45-2.16,.79-4.29,1.66-6.02,3.18-3.99,3.52-8.02,6.98-12.2,10.31-5.28,4.21-9.42,9.64-13.96,14.65,.6,1.29,1.24,2.57,1.9,3.83,.15-.23,.24-.42,.24-.56,.04-.03,.08-.05,.12-.08,2.47-1.93,4.61-4.19,6.64-6.56,.61-.6,1.22-1.19,1.84-1.79,1.58-1.31,3.61-2.13,4.53-4.15,3.14-2.55,6.7-4.6,9.38-7.7,1.39-.54,2.18-1.74,3.08-2.81,2.97-1.51,4.52-4.71,7.52-6.18,.23-.2,.46-.39,.69-.59,.04-.2,.12-.39,.23-.57,.29-.49,.8-.92,1.2-1.38,.49-.27,1-.32,1.51-.56,1.08-.5,2.08-1.31,3.04-2.13,.62-.53,1.23-1.07,1.85-1.54,3.49-2.68,7.08-5.24,10.75-7.68,.61-.41,1.23-.81,1.91-1.09,.51-.21,1.05-.34,1.58-.48,1.56-.39,3.06-.58,4.28-1.65,1.3-1.14,2.45-2.26,3.94-3.21,1.45-.92,5.47-2.28,6.76-4.09,1.89-.13,4.53-2.37,5.96-3.25,1.76-1.09,4.07-2.1,5.42-3.73,.7-.55,1.36-1.17,1.84-1.53,1.4-1.03,2.78-2.08,4.16-3.14,.83-.64,1.67-1.3,2.36-2.08,.77-.49,1.54-.99,2.31-1.48,.45-.12,.81-.41,1.15-.74,1.78-1.14,3.55-2.27,5.33-3.41,.44-.29,.89-.57,1.26-.95,.38-.39,.65-.87,1.01-1.27,1.49-1.7,4.21-2.07,6.08-3.35,1.11-.76,2.33-1.38,3.58-1.97,.76-.29,1.49-.64,2.23-1,.69-.3,1.37-.61,2.03-.93,1.74-.84,3.49-1.68,5.09-2.76,3.03-2.06,5.7-4.78,9.08-6.3,.4-.18,.81-.34,1.18-.56,.38-.22,.72-.48,1.04-.77h.02c1.55-.63,3.12-1.35,4.53-2.23,.71-.45,1.36-1,2.01-1.57,.59-.52,1.18-1.05,1.8-1.53,.38-.29,.77-.57,1.21-.75,.38-.15,.79-.22,1.19-.3,.22-.04,.44-.09,.66-.15-.67-.73-1.35-1.45-2.04-2.16-.5,.03-.99,.03-1.52,.36l-.13,.25Z"/></svg>